# xmcd
#
# Track frame offsets: 
#        150
#        21315
#        40137
#        63655
#        75609
#        107345
#        119457
#        143091
#        157947
#        182700
#        193241
#        206238
#        218685
#        234514
#
# Disc length: 3353 seconds
#
# Revision: 10
# Processed by: cddbd v1.5.2PL0 Copyright (c) Steve Scherf et al.
# Submitted via: ExactAudioCopyFreeDBPlugin 1.0
#
DISCID=c30d170e
DTITLE=Various Artist - Essential Blues Harmonica [CD1 of 2)
DYEAR=1997
DGENRE=Blues
TTITLE0=Charlie Musselwhite - The Blues Overtook Me
TTITLE1=Frank Frost - Scratch My Back
TTITLE2=Magic Dick and Jay Geils - The Jumpin' Blues
TTITLE3=Sonny Boy Williamson (aka Rice Miller) - Ninety Nine
TTITLE4=William Clarke - Must Be Jelly
TTITLE5=William "Billy Boy" Arnold - I Wish You Would
TTITLE6=Sugar Ray Norcia with Ronnie Earl and the Broadcasters - My Home
TTITLE6=Is a Prison
TTITLE7=Little Sonny - Wade In the Water
TTITLE8=Paul deLay Band - Why Can't You Love Me
TTITLE9=Jimmy Cotton Blues Quartet - Cotton Crop Blues
TTITLE10=Little Walter - I Just Keep Loving Her
TTITLE11=Junior Wells Chicago Blues Band - It Hurts Me Too (When Thing
TTITLE11=s Go Wrong)
TTITLE12=Willie Cobbs - New Slow Down Baby
TTITLE13=Sonny Terry and Brownie McGhee - Sonny's Squall
EXTD=LABEL =House of Blues - Platinum Entertainment, Inc.\nID =514161
EXTD=3002\nUPC =751416-1300-26\nCOPYRIGHT=1997
EXTT0=
EXTT1=
EXTT2=
EXTT3=
EXTT4=
EXTT5=
EXTT6=
EXTT7=
EXTT8=
EXTT9=
EXTT10=
EXTT11=
EXTT12=
EXTT13=
PLAYORDER=
